<?xml version="1.0" encoding="UTF-8"?>
<svg version="1.1" xmlns="http://www.w3.org/2000/svg" width="289" height="281">
<path d="M0 0 C95.37 0 190.74 0 289 0 C289 92.73 289 185.46 289 281 C193.63 281 98.26 281 0 281 C0 188.27 0 95.54 0 0 Z " fill="#00A9E5" transform="translate(0,0)"/>
<path d="M0 0 C0.66 0 1.32 0 2 0 C2.25420715 0.49810684 2.50841431 0.99621368 2.77032471 1.50941467 C5.42901103 6.71816582 8.09005603 11.925707 10.75244141 17.13256836 C11.74425161 19.07301738 12.73547063 21.0137687 13.72607422 22.95483398 C15.15434977 25.75324925 16.58478475 28.55055163 18.015625 31.34765625 C18.45432922 32.2083522 18.89303345 33.06904816 19.34503174 33.95582581 C19.97523224 35.18630898 19.97523224 35.18630898 20.61816406 36.44165039 C21.16443451 37.51087486 21.16443451 37.51087486 21.72174072 38.60169983 C23.41171452 41.77246848 25.21736339 44.88038593 27 48 C41.19 48 55.38 48 70 48 C72.866875 42.121875 75.73375 36.24375 78.6875 30.1875 C79.58170654 28.35598389 80.47591309 26.52446777 81.3972168 24.63745117 C85.3769938 16.47347433 89.32397545 8.30648045 93 0 C93.66 0 94.32 0 95 0 C103.56762997 29.44872413 103.56762997 29.44872413 106.62573242 40.13476562 C107.11992567 41.85969169 107.61741301 43.58367785 108.1184082 45.30664062 C109.08555509 48.65427461 109.99160323 51.9604021 110.71484375 55.37109375 C112.37998983 63.21795863 116.41014891 67.41014891 122 73 C123.93688432 75.04404252 125.84553056 77.11327104 127.75 79.1875 C128.21833252 79.69434326 128.68666504 80.20118652 129.16918945 80.72338867 C132.44775379 84.3031473 135.33133899 87.95099709 138 92 C133.59430079 96.51115478 129.11261542 100.8420112 124.33203125 104.953125 C121.33729937 107.58166688 118.42024398 110.28926718 115.5 113 C111.44273338 116.76322843 107.35212258 120.46816645 103.1640625 124.0859375 C99.63172478 127.21020732 96.18804586 130.43123348 92.7421875 133.65039062 C92.21625 134.13958984 91.6903125 134.62878906 91.1484375 135.1328125 C90.62499756 135.62547607 90.10155762 136.11813965 89.56225586 136.62573242 C88 138 88 138 84.96484375 140.05859375 C80.19201569 144.00938266 78.43737734 150.35679035 76.1875 155.9375 C75.67038829 157.18647081 75.15181789 158.43483861 74.63183594 159.68261719 C73.32145905 162.83804133 72.03065727 166.00104846 70.74578857 169.16693115 C69.58164605 172.02826942 68.40147946 174.88296625 67.22265625 177.73828125 C65.12692673 182.81721536 63.06439919 187.90781533 61 193 C52.42 193 43.84 193 35 193 C33.99839844 190.6590625 32.99679688 188.318125 31.96484375 185.90625 C30.96865788 183.57919919 29.97225365 181.252242 28.97583008 178.92529297 C28.29591563 177.33717397 27.61621975 175.74896137 26.93676758 174.16064453 C25.28484359 170.29922636 23.62915839 166.4395241 21.96582031 162.58300781 C20.65654922 159.5443035 19.37199168 156.49677751 18.10449219 153.44042969 C17.50072642 152.0071297 16.89688855 150.57386009 16.29296875 149.140625 C16.02854477 148.48880249 15.76412079 147.83697998 15.49168396 147.16540527 C12.74587748 140.71089073 8.39129934 137.23171819 3 133 C0.83983297 131.07908322 -1.26613846 129.10192091 -3.375 127.125 C-4.48490779 126.09682518 -5.59558601 125.06948141 -6.70703125 124.04296875 C-7.25568848 123.53556152 -7.8043457 123.0281543 -8.36962891 122.50537109 C-11.90991301 119.23651937 -15.46528695 115.98412285 -19.01953125 112.73046875 C-21.06143328 110.86114081 -23.10013497 108.98840159 -25.13671875 107.11328125 C-30.69354222 102.00055351 -36.27927522 96.92991871 -42 92 C-40.43767979 88.32043709 -38.16415918 85.83484207 -35.4375 82.9375 C-31.05918036 78.21018387 -26.93967442 73.34391288 -22.91015625 68.3125 C-21 66 -21 66 -19.53393555 64.85424805 C-17.15347245 61.97670273 -16.4911623 58.56294574 -15.546875 55.01953125 C-15.3256044 54.22198425 -15.1043338 53.42443726 -14.87635803 52.60272217 C-14.15850921 50.00838305 -13.45433742 47.4105363 -12.75 44.8125 C-12.26113908 43.03801857 -11.77114569 41.26384875 -11.2800293 39.48999023 C-10.54463401 36.83338902 -9.80990127 34.17662896 -9.0789032 31.51881409 C-7.05953359 24.17914502 -4.96039831 16.86569738 -2.8125 9.5625 C-2.52149414 8.57032471 -2.23048828 7.57814941 -1.93066406 6.5559082 C-1.28877825 4.37010759 -0.64542748 2.18475686 0 0 Z " fill="#FCFEFE" transform="translate(96,44)"/>
<path d="M0 0 C-4.10068064 4.88591736 -8.3482143 9.50803573 -12.875 14 C-13.49503906 14.61810547 -14.11507812 15.23621094 -14.75390625 15.87304688 C-18.31791906 19.40343692 -21.95252304 22.77439715 -25.7890625 26.0078125 C-29.77398704 29.59846889 -33.49915073 33.46210173 -37.25390625 37.29101562 C-37.83785156 37.88333984 -38.42179687 38.47566406 -39.0234375 39.0859375 C-39.54856934 39.6226709 -40.07370117 40.1594043 -40.61474609 40.71240234 C-42.71010702 42.66004661 -44.00366347 43.00047784 -46.875 43.375 C-50 43 -50 43 -52.0625 40.9375 C-52.701875 39.968125 -53.34125 38.99875 -54 38 C-54.91577535 36.77016913 -55.83246578 35.5410192 -56.75 34.3125 C-59 31.2560241 -59 31.2560241 -59 29 C-59.66 29 -60.32 29 -61 29 C-61.26425781 29.72574219 -61.52851563 30.45148438 -61.80078125 31.19921875 C-63.01495417 34.03492554 -64.37942543 36.31760534 -66.1875 38.8125 C-66.73792969 39.60269531 -67.28835937 40.39289063 -67.85546875 41.20703125 C-70 43 -70 43 -73.3984375 43.578125 C-77.98552412 42.84180307 -79.34665848 41.34982578 -82.4375 37.9375 C-83.38725843 36.91864452 -84.33909043 35.90171811 -85.29296875 34.88671875 C-86.18628906 33.93410156 -87.07960937 32.98148438 -88 32 C-89.39542955 30.72633568 -90.80943533 29.47238206 -92.25 28.25 C-94.77895594 26.09113517 -97.16974555 23.87224102 -99.5 21.5 C-103.92566621 17.00424405 -108.71979295 12.95344841 -113.5078125 8.8515625 C-114.74144531 7.78035156 -114.74144531 7.78035156 -116 6.6875 C-116.763125 6.03136719 -117.52625 5.37523437 -118.3125 4.69921875 C-120 3 -120 3 -120 1 C-115.65246201 0.05904989 -111.29659088 -0.46436229 -107.38037109 2.03271484 C-103.86274432 4.90730034 -100.7343137 8.18657181 -97.57128906 11.43994141 C-95.31234127 13.68274383 -92.86697211 15.64775147 -90.375 17.625 C-84.69297618 22.18568186 -79.3429057 27.04980304 -74 32 C-71.45115863 29.59740363 -69.99094271 27.98037587 -68.5 24.75 C-65.53242619 21.48566881 -64.47737632 21.3632772 -60.1875 21 C-56.18673633 21.15670066 -54.57444853 21.44760876 -51.66015625 24.25 C-49.91163361 26.76730049 -48.3855477 29.26793411 -47 32 C-41.7809971 28.78893124 -37.5343739 24.92469834 -33.125 20.6875 C-28.43693636 16.21170899 -23.71438222 11.81743298 -18.79394531 7.59667969 C-16.98755824 5.98892636 -15.3086797 4.29725614 -13.625 2.5625 C-9.47263422 -1.06961577 -5.21700385 -0.464714 0 0 Z " fill="#07ABE5" transform="translate(204,136)"/>
</svg>
