<?xml version="1.0" encoding="UTF-8"?>
<svg version="1.1" xmlns="http://www.w3.org/2000/svg" width="32" height="31">
<path d="M0 0 C10.56 0 21.12 0 32 0 C32 10.23 32 20.46 32 31 C21.44 31 10.88 31 0 31 C0 20.77 0 10.54 0 0 Z " fill="#EFF0F0" transform="translate(0,0)"/>
<path d="M0 0 C10.56 0 21.12 0 32 0 C32 8.25 32 16.5 32 25 C27.50279795 19.37849744 27.50279795 19.37849744 25.89453125 16.484375 C25.55099609 15.87335937 25.20746094 15.26234375 24.85351562 14.6328125 C24.50998047 14.01148438 24.16644531 13.39015625 23.8125 12.75 C21.73745676 8.62784941 21.73745676 8.62784941 19 5 C16.62862504 4.42555552 16.62862504 4.42555552 14 5 C11.79121647 7.52488074 11.79121647 7.52488074 10 10.875 C9.6596875 11.45983154 9.319375 12.04466309 8.96875 12.6472168 C6.09303433 17.65044466 3.45251484 22.77661502 1 28 C0.67 28 0.34 28 0 28 C0 18.76 0 9.52 0 0 Z " fill="#F2F2F3" transform="translate(0,0)"/>
<path d="M0 0 C2.6875 0.375 2.6875 0.375 4.55859375 2.38671875 C7.12091978 5.98337823 9.29445917 9.70572457 11.4375 13.5625 C11.84871094 14.28630859 12.25992187 15.01011719 12.68359375 15.75585938 C15.6875 21.11997768 15.6875 21.11997768 15.6875 23.375 C14.3675 23.375 13.0475 23.375 11.6875 23.375 C11.3575 22.715 11.0275 22.055 10.6875 21.375 C10.06875 21.1275 9.45 20.88 8.8125 20.625 C5.80242591 18.85436818 5.08365219 16.49972156 3.6875 13.375 C2.63887906 12.12343946 2.63887906 12.12343946 0.3125 12.0625 C-2.4090105 12.10574184 -2.4090105 12.10574184 -4 14.125 C-5.33399058 16.32642701 -5.33399058 16.32642701 -6.3125 18.5625 C-7.3125 20.375 -7.3125 20.375 -10.3125 21.375 C-10.6425 22.035 -10.9725 22.695 -11.3125 23.375 C-12.6325 23.375 -13.9525 23.375 -15.3125 23.375 C-13.82270556 17.96917445 -11.25090041 13.72726598 -8.25 9.0625 C-7.79044922 8.33482422 -7.33089844 7.60714844 -6.85742188 6.85742188 C-2.79264487 0.45286133 -2.79264487 0.45286133 0 0 Z " fill="#284565" transform="translate(16.3125,3.625)"/>
<path d="M0 0 C0.86625 1.1446875 0.86625 1.1446875 1.75 2.3125 C3.71703093 4.66200917 5.48476744 6.29323505 8 8 C2.6407767 12.01941748 2.6407767 12.01941748 -0.0625 11.9375 C-2.47654948 10.76941154 -4.74070614 9.44343774 -7 8 C-6 6 -6 6 -4.0625 5.125 C-1.57998766 3.77090236 -1.03128603 2.57821507 0 0 Z " fill="#97A8AD" transform="translate(16,19)"/>
</svg>
